<?xml version="1.0" encoding="utf-8"?>
<!-- Generator: Adobe Illustrator 25.4.1, SVG Export Plug-In . SVG Version: 6.00 Build 0)  -->
<svg version="1.1" id="Layer_1" xmlns="http://www.w3.org/2000/svg" xmlns:xlink="http://www.w3.org/1999/xlink" x="0px" y="0px"
	 viewBox="0 0 200 200" style="enable-background:new 0 0 200 200;" xml:space="preserve">
<style type="text/css">
	.st0{fill:#21DD53;}
	.st1{fill:#1AA66E;}
	.st2{fill:#136F88;}
	.st3{fill:#0C37A3;}
	.st4{fill:#0500BD;}
	.st5{fill:#FFFFFF;}
</style>
<g id="Layer_1_00000032607871018279710710000005758970535293352841_">
</g>
<g id="Isolation_Mode">
	<g>
		<g>
			<path class="st0" d="M175.4,175.4C159,191.8,137.6,200,116.1,200s-43-8.2-59.3-24.6s-24.6-37.9-24.6-59.3s8.2-43,24.6-59.3
				s37.9-24.6,59.3-24.6s43,8.2,59.3,24.6S200,94.6,200,116.1S191.8,159,175.4,175.4z"/>
			<path class="st1" d="M48.7,48.7C64.8,32.6,86.1,24.1,108,24.1s43.3,8.5,59.3,24.6S192,86.1,192,108s-8.5,43.3-24.6,59.3
				S129.9,192,108,192s-43.3-8.5-59.3-24.6S24.1,129.9,24.1,108S32.6,64.8,48.7,48.7z"/>
			<path class="st2" d="M40.7,40.7c15.8-15.8,37-24.6,59.3-24.6s43.6,8.8,59.3,24.6s24.6,37,24.6,59.3s-8.8,43.6-24.6,59.3
				s-37,24.6-59.3,24.6s-43.6-8.8-59.3-24.6s-24.6-37-24.6-59.3S24.9,56.4,40.7,40.7z"/>
			<path class="st3" d="M32.6,32.6C48.1,17.1,69.2,8,92,8s43.9,9.1,59.3,24.6s24.6,36.6,24.6,59.3s-9.1,43.9-24.6,59.3
				s-36.6,24.6-59.3,24.6s-43.9-9.1-59.3-24.6S8,114.7,8,92S17.1,48.1,32.6,32.6z"/>
			<path class="st4" d="M167.8,83.9c0,23.2-9.4,44.2-24.6,59.3c-15.2,15.2-36.2,24.6-59.3,24.6s-44.2-9.4-59.3-24.6
				C9.4,128.1,0,107.1,0,83.9s9.4-44.2,24.6-59.3S60.7,0,83.9,0C130.3,0,167.8,37.6,167.8,83.9z"/>
		</g>
		<g>
			<path class="st5" d="M121.8,128.2c-9,6.7-19,10.1-30.2,10.1c-12.7,0-23.1-4.1-31.4-12.4c-6.7-6.7-11-15.2-12.8-25.5H35.7v-11
				h10.6c-0.1-1.2-0.2-3.1-0.2-5.6c0-0.6,0-1.5,0.1-2.6c0-1.1,0.1-2,0.1-2.6H35.7v-11h11.6c1.9-10.6,6.2-19.2,13-25.9
				c8.2-8.2,18.7-12.4,31.4-12.4c11.2,0,21.2,3.4,30.2,10.1l-7.1,15.2c-7.2-5.5-14.9-8.3-23.1-8.3C84,46.5,77.8,49,73.1,54
				c-3.3,3.5-5.5,8.1-6.6,13.7h42.4l-5.3,11H65.2V84v5.4h35.3l-5.3,11H66.4c1.1,5.2,3.3,9.7,6.6,13.3c4.7,5,10.9,7.5,18.6,7.5
				c8.5,0,16.2-2.8,23.1-8.3L121.8,128.2z"/>
		</g>
	</g>
</g>
</svg>
