<svg viewBox="0 0 22 22" fill="none" xmlns="http://www.w3.org/2000/svg">
<path d="M22 10.9999C22 17.0751 17.0752 22 11.0001 22C4.92487 22 0 17.0751 0 10.9999C0 4.92484 4.92487 0 11.0001 0C17.0751 0 22 4.92484 22 10.9999Z" fill="#FBE41A"/>
<path d="M14.3347 16.3542L14.0115 14.8863C13.9931 14.7999 13.947 14.7353 13.8729 14.6924C13.7929 14.6492 13.7129 14.6432 13.633 14.674L13.5867 14.6924L13.4758 14.72C13.4265 14.7322 13.3696 14.7462 13.3049 14.7615C13.2403 14.7769 13.165 14.7922 13.0787 14.8077C12.9929 14.8231 12.9016 14.837 12.8065 14.8493C12.7111 14.8614 12.6082 14.8723 12.4973 14.8816C12.3863 14.8907 12.2757 14.8953 12.1648 14.8953C11.383 14.8953 10.6797 14.6846 10.055 14.2629C9.43019 13.8412 8.97006 13.2703 8.67464 12.5502H12.2477C12.3156 12.5502 12.3771 12.5272 12.4323 12.4809C12.4879 12.4349 12.5218 12.378 12.5338 12.31L12.7554 11.2759C12.774 11.1838 12.7554 11.1006 12.7002 11.0267C12.6386 10.9528 12.5615 10.9158 12.4693 10.9158H8.23153C8.21306 10.4972 8.21306 10.1741 8.23153 9.9463H12.7372C12.9036 9.9463 13.002 9.86636 13.0327 9.70631L13.2543 8.65372C13.2726 8.56757 13.2514 8.48763 13.1897 8.4137C13.1345 8.33983 13.0575 8.30274 12.959 8.30274H8.63781C8.94558 7.61336 9.4072 7.0717 10.0228 6.67774C10.6384 6.28369 11.3339 6.08677 12.1095 6.08677C12.1342 6.07448 12.2249 6.07759 12.3818 6.09602C12.5387 6.11439 12.6281 6.12215 12.6496 6.11905C12.6708 6.11601 12.7512 6.12529 12.8895 6.1467C13.0281 6.16824 13.0974 6.17904 13.0974 6.17904L13.2589 6.21131C13.3052 6.22063 13.3406 6.22819 13.3652 6.23443L13.4021 6.24362C13.4821 6.26836 13.5557 6.2606 13.6237 6.22063C13.6915 6.18049 13.7346 6.12057 13.7531 6.04056L14.1502 4.57251C14.1685 4.49247 14.1592 4.4186 14.1225 4.35092C14.0671 4.27692 14.0054 4.23077 13.9377 4.21237C13.3715 4.07082 12.7742 4 12.1465 4C10.7675 4 9.535 4.39406 8.44852 5.18185C7.36208 5.9697 6.61261 7.01007 6.20018 8.30264H5.29542C5.2092 8.30264 5.13848 8.33029 5.08305 8.38569C5.02778 8.44102 5 8.51185 5 8.59806V9.65065C5 9.7368 5.02768 9.80763 5.08305 9.8629C5.13851 9.91836 5.20933 9.94594 5.29542 9.94594H5.91408C5.89548 10.2415 5.89254 10.5645 5.90476 10.9155H5.29542C5.21541 10.9155 5.14617 10.9447 5.0877 11.0032C5.02927 11.0616 5 11.1309 5 11.2108V12.2542C5 12.3343 5.02927 12.4034 5.0877 12.4621C5.14621 12.5205 5.21541 12.5495 5.29542 12.5495H6.1726C6.56038 13.9098 7.29294 14.9918 8.37013 15.795C9.44739 16.5985 10.7062 17 12.1465 17C12.2635 17 12.3819 16.9971 12.502 16.9907C12.6223 16.9845 12.7344 16.9752 12.8391 16.9631C12.9437 16.9509 13.0469 16.9372 13.1485 16.9217C13.2499 16.9062 13.3423 16.891 13.4253 16.8754C13.5085 16.8601 13.587 16.8448 13.6607 16.8295C13.7347 16.8139 13.8008 16.7972 13.8594 16.7786C13.9178 16.7603 13.9669 16.7464 14.007 16.7373C14.0471 16.728 14.0794 16.7171 14.1039 16.705L14.1501 16.6957C14.2179 16.6711 14.2702 16.6264 14.3071 16.5617C14.3441 16.4974 14.3531 16.428 14.3347 16.3542Z" fill="#E5B200"/>
</svg>
